<svg width="480" height="120" viewBox="0 0 480 120" fill="none" xmlns="http://www.w3.org/2000/svg">
<circle cx="80.1863" cy="59.8966" r="20" fill="#F6F3EB"/>
<mask id="mask0_1759_371" style="mask-type:alpha" maskUnits="userSpaceOnUse" x="60" y="39" width="41" height="41">
<circle cx="80.1863" cy="59.8966" r="20" fill="#F6F3EB"/>
</mask>
<g mask="url(#mask0_1759_371)">
<path d="M92.6863 54.8966C92.6863 61.8002 87.0898 67.3966 80.1863 67.3966C73.2827 67.3966 67.6863 61.8002 67.6863 54.8966C67.6863 47.993 73.2827 42.3966 80.1863 42.3966C87.0898 42.3966 92.6863 47.993 92.6863 54.8966Z" fill="#35DFE1"/>
<path d="M79.0699 62.6495C79.4547 61.982 80.4179 61.982 80.8026 62.6495L91.3219 80.8972C91.7062 81.5638 91.2251 82.3966 90.4555 82.3966H69.417C68.6475 82.3966 68.1663 81.5638 68.5507 80.8972L79.0699 62.6495Z" fill="#35DFE1"/>
</g>
<path d="M165.28 67.63C164.48 67.63 163.74 67.43 163.06 67.03C162.4 66.63 161.87 66.1 161.47 65.44C161.09 64.76 160.9 64.02 160.9 63.22C160.9 62.44 161.09 61.72 161.47 61.06C161.87 60.38 162.4 59.85 163.06 59.47C163.74 59.07 164.48 58.87 165.28 58.87C166.04 58.87 166.75 59.07 167.41 59.47C168.09 59.85 168.63 60.38 169.03 61.06C169.43 61.72 169.63 62.44 169.63 63.22C169.63 64.02 169.43 64.76 169.03 65.44C168.63 66.1 168.09 66.63 167.41 67.03C166.75 67.43 166.04 67.63 165.28 67.63ZM185.908 54.85L190.168 58.99L186.238 62.8L190.138 66.58L185.878 70.72L181.978 66.61L178.078 70.72L173.818 66.58L177.718 62.8L173.818 58.99L178.078 54.85L181.978 58.99L185.908 54.85ZM198.76 67.63C197.96 67.63 197.22 67.43 196.54 67.03C195.88 66.63 195.35 66.1 194.95 65.44C194.57 64.76 194.38 64.02 194.38 63.22C194.38 62.44 194.57 61.72 194.95 61.06C195.35 60.38 195.88 59.85 196.54 59.47C197.22 59.07 197.96 58.87 198.76 58.87C199.52 58.87 200.23 59.07 200.89 59.47C201.57 59.85 202.11 60.38 202.51 61.06C202.91 61.72 203.11 62.44 203.11 63.22C203.11 64.02 202.91 64.76 202.51 65.44C202.11 66.1 201.57 66.63 200.89 67.03C200.23 67.43 199.52 67.63 198.76 67.63ZM212.278 67.63C211.478 67.63 210.738 67.43 210.058 67.03C209.398 66.63 208.868 66.1 208.468 65.44C208.088 64.76 207.898 64.02 207.898 63.22C207.898 62.44 208.088 61.72 208.468 61.06C208.868 60.38 209.398 59.85 210.058 59.47C210.738 59.07 211.478 58.87 212.278 58.87C213.038 58.87 213.748 59.07 214.408 59.47C215.088 59.85 215.628 60.38 216.028 61.06C216.428 61.72 216.628 62.44 216.628 63.22C216.628 64.02 216.428 64.76 216.028 65.44C215.628 66.1 215.088 66.63 214.408 67.03C213.748 67.43 213.038 67.63 212.278 67.63ZM225.796 67.63C224.996 67.63 224.256 67.43 223.576 67.03C222.916 66.63 222.386 66.1 221.986 65.44C221.606 64.76 221.416 64.02 221.416 63.22C221.416 62.44 221.606 61.72 221.986 61.06C222.386 60.38 222.916 59.85 223.576 59.47C224.256 59.07 224.996 58.87 225.796 58.87C226.556 58.87 227.266 59.07 227.926 59.47C228.606 59.85 229.146 60.38 229.546 61.06C229.946 61.72 230.146 62.44 230.146 63.22C230.146 64.02 229.946 64.76 229.546 65.44C229.146 66.1 228.606 66.63 227.926 67.03C227.266 67.43 226.556 67.63 225.796 67.63ZM246.423 54.85L250.683 58.99L246.753 62.8L250.653 66.58L246.393 70.72L242.493 66.61L238.593 70.72L234.333 66.58L238.233 62.8L234.333 58.99L238.593 54.85L242.493 58.99L246.423 54.85ZM259.276 67.63C258.476 67.63 257.736 67.43 257.056 67.03C256.396 66.63 255.866 66.1 255.466 65.44C255.086 64.76 254.896 64.02 254.896 63.22C254.896 62.44 255.086 61.72 255.466 61.06C255.866 60.38 256.396 59.85 257.056 59.47C257.736 59.07 258.476 58.87 259.276 58.87C260.036 58.87 260.746 59.07 261.406 59.47C262.086 59.85 262.626 60.38 263.026 61.06C263.426 61.72 263.626 62.44 263.626 63.22C263.626 64.02 263.426 64.76 263.026 65.44C262.626 66.1 262.086 66.63 261.406 67.03C260.746 67.43 260.036 67.63 259.276 67.63ZM279.904 54.85L284.164 58.99L280.234 62.8L284.134 66.58L279.874 70.72L275.974 66.61L272.074 70.72L267.814 66.58L271.714 62.8L267.814 58.99L272.074 54.85L275.974 58.99L279.904 54.85ZM292.757 67.63C291.957 67.63 291.217 67.43 290.537 67.03C289.877 66.63 289.347 66.1 288.947 65.44C288.567 64.76 288.377 64.02 288.377 63.22C288.377 62.44 288.567 61.72 288.947 61.06C289.347 60.38 289.877 59.85 290.537 59.47C291.217 59.07 291.957 58.87 292.757 58.87C293.517 58.87 294.227 59.07 294.887 59.47C295.567 59.85 296.107 60.38 296.507 61.06C296.907 61.72 297.107 62.44 297.107 63.22C297.107 64.02 296.907 64.76 296.507 65.44C296.107 66.1 295.567 66.63 294.887 67.03C294.227 67.43 293.517 67.63 292.757 67.63ZM306.274 67.63C305.474 67.63 304.734 67.43 304.054 67.03C303.394 66.63 302.864 66.1 302.464 65.44C302.084 64.76 301.894 64.02 301.894 63.22C301.894 62.44 302.084 61.72 302.464 61.06C302.864 60.38 303.394 59.85 304.054 59.47C304.734 59.07 305.474 58.87 306.274 58.87C307.034 58.87 307.744 59.07 308.404 59.47C309.084 59.85 309.624 60.38 310.024 61.06C310.424 61.72 310.624 62.44 310.624 63.22C310.624 64.02 310.424 64.76 310.024 65.44C309.624 66.1 309.084 66.63 308.404 67.03C307.744 67.43 307.034 67.63 306.274 67.63Z" fill="#35DFE1"/>
<path d="M114.466 67.63C113.666 67.63 112.926 67.43 112.246 67.03C111.586 66.63 111.056 66.1 110.656 65.44C110.276 64.76 110.086 64.02 110.086 63.22C110.086 62.44 110.276 61.72 110.656 61.06C111.056 60.38 111.586 59.85 112.246 59.47C112.926 59.07 113.666 58.87 114.466 58.87C115.226 58.87 115.936 59.07 116.596 59.47C117.276 59.85 117.816 60.38 118.216 61.06C118.616 61.72 118.816 62.44 118.816 63.22C118.816 64.02 118.616 64.76 118.216 65.44C117.816 66.1 117.276 66.63 116.596 67.03C115.936 67.43 115.226 67.63 114.466 67.63ZM127.984 67.63C127.184 67.63 126.444 67.43 125.764 67.03C125.104 66.63 124.574 66.1 124.174 65.44C123.794 64.76 123.604 64.02 123.604 63.22C123.604 62.44 123.794 61.72 124.174 61.06C124.574 60.38 125.104 59.85 125.764 59.47C126.444 59.07 127.184 58.87 127.984 58.87C128.744 58.87 129.454 59.07 130.114 59.47C130.794 59.85 131.334 60.38 131.734 61.06C132.134 61.72 132.334 62.44 132.334 63.22C132.334 64.02 132.134 64.76 131.734 65.44C131.334 66.1 130.794 66.63 130.114 67.03C129.454 67.43 128.744 67.63 127.984 67.63Z" fill="#F6F3EB"/>
</svg>
