<svg width="230" height="40" viewBox="0 0 230 40" fill="none" xmlns="http://www.w3.org/2000/svg">
<g clip-path="url(#clip0_334_66)">
<path d="M79.16 0.660078C80.66 0.480078 83.02 0.660078 83.02 0.660078V38.94H73.44V23.9C73.44 23.9 70.28 38.28 63.72 38.3H63.66C57.1 38.28 53.92 23.9 53.92 23.9V38.94H44.34V0.660078C44.34 0.660078 46.7 0.480078 48.2 0.660078C58.4 1.82008 63.7 22.96 63.7 22.96C63.7 22.96 69 1.82008 79.18 0.660078H79.16Z" fill="#0B6F72"/>
<path d="M103.94 40C95.68 40 88.96 33.86 88.96 25.16V1.02007C94.28 1.02007 98.6 5.34008 98.6 10.66V25.12C98.6 28.28 101.18 30.36 103.9 30.36C106.62 30.36 109.26 28.22 109.26 25.12V10.66C109.26 5.34008 113.58 1.02007 118.9 1.02007V25.16C118.9 33.86 112.18 40 103.92 40H103.94Z" fill="#0B6F72"/>
<path d="M20 0C8.96 0 0 8.96 0 20C0 31.0399 8.96 39.9999 20 39.9999C31.0399 39.9999 39.9999 31.0399 39.9999 20C39.9999 8.96 31.0399 0 20 0ZM20 30C14.48 30 9.99996 25.52 9.99996 20C9.99996 14.48 14.48 10 20 10C25.52 10 30 14.48 30 20C30 25.52 25.52 30 20 30Z" fill="#0B6F72"/>
<path d="M145.707 1H155.927V38.9409H145.707V24.6542H134.243V38.9409H124V1H134.243V15.2396H145.707V1Z" fill="#0B6F72"/>
<path d="M178.304 40C169.473 40 162.293 33.857 162.293 25.1485V1H172.608V25.1249C172.608 28.2788 175.361 30.3736 178.28 30.3736C181.176 30.3736 184 28.2317 184 25.1249V1H194.316V25.1485C194.316 33.857 187.136 40 178.304 40Z" fill="#0B6F72"/>
<path d="M221.264 17.5697C225.381 17.5697 230 21.6415 230 27.3609C230 33.3627 224.878 38.9409 217.148 38.9409H200.682V1H213.366C220.355 1 225.477 5.63669 225.477 10.8618C225.477 14.7689 222.844 17.5697 221.264 17.5697ZM216.885 12.6741C216.885 10.8383 215.257 9.75558 213.055 9.75558H210.542V15.7103H212.984C215.209 15.7103 216.885 14.6276 216.885 12.6741ZM215.592 29.7852C217.938 29.7852 220.187 28.6554 220.187 26.1605C220.187 23.9481 218.56 22.6065 215.664 22.6065L210.542 22.583V29.7852H215.592Z" fill="#0B6F72"/>
</g>
<defs>
<clipPath id="clip0_334_66">
<rect width="230" height="40" fill="white"/>
</clipPath>
</defs>
</svg>
